# xmcd
#
# Track frame offsets:
#	150
#	9144
#	17376
#	28810
#	38139
#	48687
#	59642
#	71842
#	83829
#	96587
#	105990
#	119910
#	136186
#	146361
#	154331
#	168151
#	177367
#	189707
#	201800
#	215564
#	225890
#
# Disc length: 3162 seconds
# Revision: 0
# Processed by: cddbd v1.5.2PL0 Copyright (c) Steve Scherf et al.
# Submitted via: dBpowerAMP V12.0
#
DISCID=250c5815
DTITLE=Jim Smoak and the Louisiana Honeydrippers - Bayou Bluegrass
DYEAR=2002
DGENRE=Country
TTITLE0=Calinda
TTITLE1=Run, Boy, Run
TTITLE2=Liza Jane
TTITLE3=My Last Dollar Is Gone
TTITLE4=Old Dan Tucker
TTITLE5=The Lakes of Ponchartrain
TTITLE6=Rabbit, Where's Your Mammy?
TTITLE7=Underneath the Weeping Willow
TTITLE8=Chicken Pie
TTITLE9=Kissin' Cousins
TTITLE10=Woodchuck in the Deadnin'
TTITLE11=Poor Man
TTITLE12=Whoah, Mule, Whoah
TTITLE13=Great Big Billy Goat
TTITLE14=Bill Cheatum
TTITLE15=Raisin' a Ruckus Tonight
TTITLE16=The Fisher's Hornpipe
TTITLE17=East Bound Train
TTITLE18=Hop Light Ladies
TTITLE19=Silver Dagger
TTITLE20=Mama Don't Allow
EXTD=
EXTT0=
EXTT1=
EXTT2=
EXTT3=
EXTT4=
EXTT5=
EXTT6=
EXTT7=
EXTT8=
EXTT9=
EXTT10=
EXTT11=
EXTT12=
EXTT13=
EXTT14=
EXTT15=
EXTT16=
EXTT17=
EXTT18=
EXTT19=
EXTT20=
PLAYORDER=
